<svg width="75" height="66" viewBox="0 0 75 66" fill="none" xmlns="http://www.w3.org/2000/svg">
<path d="M1.45 52V50.55C2.61667 50.0167 3.98333 49.6167 5.55 49.35V19.7C4.78333 19.5333 4.05 19.35 3.35 19.15C2.65 18.9167 2.01667 18.6833 1.45 18.45V17H6.55C7.11667 17 7.78333 16.9833 8.55 16.95C9.31667 16.9167 10.1 16.8833 10.9 16.85C11.7333 16.7833 12.5167 16.7333 13.25 16.7C14.0167 16.6333 14.65 16.6 15.15 16.6C20.8167 16.6 25.1667 18.1167 28.2 21.15C31.2667 24.1833 32.8 28.4833 32.8 34.05C32.8 36.6833 32.4167 39.1333 31.65 41.4C30.9167 43.6333 29.7833 45.5667 28.25 47.2C26.7167 48.8333 24.7667 50.1167 22.4 51.05C20.0667 51.9833 17.3 52.45 14.1 52.45C13.6 52.45 13.0333 52.4167 12.4 52.35C11.7667 52.3167 11.1 52.2667 10.4 52.2C9.7 52.1667 8.98333 52.1167 8.25 52.05C7.55 52.0167 6.88333 52 6.25 52H1.45ZM14.45 19.2C13.5833 19.2 12.75 19.2167 11.95 19.25C11.15 19.25 10.5167 19.3 10.05 19.4V49.7C10.2167 49.7333 10.5167 49.7667 10.95 49.8C11.3833 49.8 11.85 49.8167 12.35 49.85C12.85 49.85 13.3167 49.85 13.75 49.85C14.2167 49.85 14.55 49.85 14.75 49.85C17.05 49.85 19 49.4167 20.6 48.55C22.2 47.6833 23.5 46.5333 24.5 45.1C25.5333 43.6333 26.2833 41.95 26.75 40.05C27.2167 38.15 27.45 36.15 27.45 34.05C27.45 32.4167 27.2167 30.7333 26.75 29C26.3167 27.2333 25.5833 25.6333 24.55 24.2C23.55 22.7333 22.2167 21.5333 20.55 20.6C18.8833 19.6667 16.85 19.2 14.45 19.2ZM45.2404 48.856C45.2404 49.208 45.2484 49.512 45.2644 49.768C45.2804 50.024 45.2964 50.296 45.3124 50.584L46.9684 50.824V51.328C46.5684 51.536 46.1204 51.72 45.6244 51.88C45.1444 52.04 44.6804 52.16 44.2324 52.24H43.6324C43.4724 51.872 43.3764 51.472 43.3444 51.04C43.3124 50.592 43.2884 50.104 43.2724 49.576H43.1524C43.0884 49.896 42.9604 50.224 42.7684 50.56C42.5924 50.88 42.3524 51.168 42.0484 51.424C41.7604 51.68 41.4164 51.888 41.0164 52.048C40.6164 52.208 40.1604 52.288 39.6484 52.288C38.6724 52.288 37.8724 51.992 37.2484 51.4C36.6404 50.808 36.3364 50.032 36.3364 49.072C36.3364 48.336 36.4804 47.736 36.7684 47.272C37.0724 46.792 37.5124 46.416 38.0884 46.144C38.6644 45.872 39.3764 45.68 40.2244 45.568C41.0724 45.44 42.0564 45.344 43.1764 45.28C43.2404 44.592 43.2564 43.976 43.2244 43.432C43.2084 42.872 43.1204 42.4 42.9604 42.016C42.8164 41.616 42.5924 41.312 42.2884 41.104C42.0004 40.88 41.6164 40.768 41.1364 40.768C40.9124 40.768 40.6564 40.784 40.3684 40.816C40.0964 40.832 39.8244 40.896 39.5524 41.008L38.4244 43.888H37.8004C37.6404 43.408 37.4964 42.912 37.3684 42.4C37.2564 41.888 37.1844 41.384 37.1524 40.888C37.7604 40.52 38.4324 40.232 39.1684 40.024C39.9204 39.816 40.7524 39.712 41.6644 39.712C42.4804 39.712 43.1284 39.832 43.6084 40.072C44.1044 40.296 44.4804 40.592 44.7364 40.96C44.9924 41.328 45.1604 41.736 45.2404 42.184C45.3204 42.632 45.3604 43.08 45.3604 43.528C45.3604 44.488 45.3364 45.416 45.2884 46.312C45.2564 47.192 45.2404 48.04 45.2404 48.856ZM40.6084 50.8C41.0084 50.8 41.3604 50.72 41.6644 50.56C41.9684 50.4 42.2244 50.208 42.4324 49.984C42.6404 49.76 42.8084 49.536 42.9364 49.312C43.0644 49.072 43.1524 48.872 43.2004 48.712V46.192C42.2724 46.192 41.5124 46.24 40.9204 46.336C40.3284 46.432 39.8644 46.584 39.5284 46.792C39.1924 47 38.9604 47.264 38.8324 47.584C38.7044 47.888 38.6404 48.24 38.6404 48.64C38.6404 49.328 38.8164 49.864 39.1684 50.248C39.5204 50.616 40.0004 50.8 40.6084 50.8ZM53.8296 52H48.5016V51.4C48.7416 51.272 48.9896 51.168 49.2456 51.088C49.5016 50.992 49.7816 50.904 50.0856 50.824V41.392L48.5016 41.2V40.576C48.9656 40.384 49.4696 40.216 50.0136 40.072C50.5576 39.928 51.1016 39.808 51.6456 39.712H52.2456V50.824C52.5656 50.904 52.8536 50.992 53.1096 51.088C53.3656 51.168 53.6056 51.272 53.8296 51.4V52ZM49.6296 35.92C49.6296 35.488 49.7656 35.144 50.0376 34.888C50.3256 34.632 50.7016 34.504 51.1656 34.504C51.6296 34.504 51.9976 34.632 52.2696 34.888C52.5416 35.144 52.6776 35.488 52.6776 35.92C52.6776 36.352 52.5416 36.696 52.2696 36.952C51.9976 37.192 51.6296 37.312 51.1656 37.312C50.7016 37.312 50.3256 37.192 50.0376 36.952C49.7656 36.696 49.6296 36.352 49.6296 35.92ZM61.0483 52H55.7203V51.4C56.2483 51.144 56.7763 50.952 57.3043 50.824V35.632L55.4803 35.44V34.816C55.8963 34.624 56.4163 34.456 57.0403 34.312C57.6643 34.168 58.2723 34.048 58.8643 33.952H59.4643V50.824C59.9923 50.952 60.5203 51.144 61.0483 51.4V52ZM62.9631 41.2C62.7231 41.136 62.4991 41.056 62.2911 40.96C62.0991 40.864 61.8991 40.752 61.6911 40.624V40H66.7071V40.6C66.3711 40.824 65.9151 41.024 65.3391 41.2L68.4111 48.304L68.8671 49.792H68.9151L69.2751 48.28L71.5551 41.2C71.0751 41.104 70.6351 40.912 70.2351 40.624V40H74.3391V40.624C74.0031 40.848 73.5471 41.04 72.9711 41.2L69.2271 52C68.8431 53.024 68.4751 53.848 68.1231 54.472C67.7871 55.112 67.4431 55.616 67.0911 55.984C66.7551 56.352 66.4031 56.616 66.0351 56.776C65.6831 56.952 65.2991 57.08 64.8831 57.16C64.7071 56.856 64.5471 56.52 64.4031 56.152C64.2751 55.784 64.1631 55.432 64.0671 55.096L64.3791 54.52H66.8751C66.9711 54.392 67.0511 54.264 67.1151 54.136C67.1951 54.024 67.2751 53.88 67.3551 53.704C67.4351 53.528 67.5231 53.304 67.6191 53.032C67.7151 52.76 67.8271 52.416 67.9551 52L62.9631 41.2Z" fill="white"/>
<line x1="11.1094" y1="29.2245" x2="17.6505" y2="37.3239" stroke="#89B5E9" stroke-width="3" stroke-linecap="round"/>
<path d="M45 16L37.0345 22.002L18.0691 37.004" stroke="#86B2E6" stroke-width="3" stroke-linecap="round"/>
</svg>
